<svg width="90" height="36" viewBox="0 0 90 36" fill="none" xmlns="http://www.w3.org/2000/svg">
<g clip-path="url(#clip0_1_770)">
<path d="M14.568 23.904C14.392 23.952 14.112 24 13.728 24.048C13.36 24.096 12.992 24.12 12.624 24.12C12.256 24.12 11.928 24.088 11.64 24.024C11.368 23.976 11.136 23.88 10.944 23.736C10.752 23.592 10.608 23.392 10.512 23.136C10.416 22.88 10.368 22.544 10.368 22.128V18.384H5.76V23.904C5.584 23.952 5.304 24 4.92 24.048C4.552 24.096 4.184 24.12 3.816 24.12C3.448 24.12 3.12 24.088 2.832 24.024C2.56 23.976 2.328 23.88 2.136 23.736C1.944 23.592 1.8 23.392 1.704 23.136C1.608 22.88 1.56 22.544 1.56 22.128V9.456C1.736 9.424 2.016 9.384 2.4 9.336C2.784 9.272 3.152 9.24 3.504 9.24C3.872 9.24 4.192 9.272 4.464 9.336C4.752 9.384 4.992 9.48 5.184 9.624C5.376 9.768 5.52 9.968 5.616 10.224C5.712 10.48 5.76 10.816 5.76 11.232V15.072H10.368V9.456C10.544 9.424 10.824 9.384 11.208 9.336C11.592 9.272 11.96 9.24 12.312 9.24C12.68 9.24 13 9.272 13.272 9.336C13.56 9.384 13.8 9.48 13.992 9.624C14.184 9.768 14.328 9.968 14.424 10.224C14.52 10.48 14.568 10.816 14.568 11.232V23.904ZM23.291 24.384C22.347 24.384 21.467 24.256 20.651 24C19.851 23.728 19.147 23.328 18.539 22.8C17.947 22.272 17.475 21.608 17.123 20.808C16.787 20.008 16.619 19.072 16.619 18C16.619 16.944 16.787 16.04 17.123 15.288C17.475 14.52 17.931 13.896 18.491 13.416C19.051 12.92 19.691 12.56 20.411 12.336C21.131 12.096 21.867 11.976 22.619 11.976C23.467 11.976 24.235 12.104 24.923 12.36C25.627 12.616 26.227 12.968 26.723 13.416C27.235 13.864 27.627 14.4 27.899 15.024C28.187 15.648 28.331 16.328 28.331 17.064C28.331 17.608 28.179 18.024 27.875 18.312C27.571 18.6 27.147 18.784 26.603 18.864L20.675 19.752C20.851 20.28 21.211 20.68 21.755 20.952C22.299 21.208 22.923 21.336 23.627 21.336C24.283 21.336 24.899 21.256 25.475 21.096C26.067 20.92 26.547 20.72 26.915 20.496C27.171 20.656 27.387 20.88 27.563 21.168C27.739 21.456 27.827 21.76 27.827 22.08C27.827 22.8 27.491 23.336 26.819 23.688C26.307 23.96 25.731 24.144 25.091 24.24C24.451 24.336 23.851 24.384 23.291 24.384ZM22.619 14.952C22.235 14.952 21.899 15.016 21.611 15.144C21.339 15.272 21.115 15.44 20.939 15.648C20.763 15.84 20.627 16.064 20.531 16.32C20.451 16.56 20.403 16.808 20.387 17.064L24.491 16.392C24.443 16.072 24.267 15.752 23.963 15.432C23.659 15.112 23.211 14.952 22.619 14.952ZM35.0369 21.408C35.3089 21.408 35.6049 21.384 35.9249 21.336C36.2609 21.272 36.5089 21.192 36.6689 21.096V19.176L34.9409 19.32C34.4929 19.352 34.1249 19.448 33.8369 19.608C33.5489 19.768 33.4049 20.008 33.4049 20.328C33.4049 20.648 33.5249 20.912 33.7649 21.12C34.0209 21.312 34.4449 21.408 35.0369 21.408ZM34.8449 11.976C35.7089 11.976 36.4929 12.064 37.1969 12.24C37.9169 12.416 38.5249 12.688 39.0209 13.056C39.5329 13.408 39.9249 13.864 40.1969 14.424C40.4689 14.968 40.6049 15.616 40.6049 16.368V21.744C40.6049 22.16 40.4849 22.504 40.2449 22.776C40.0209 23.032 39.7489 23.256 39.4289 23.448C38.3889 24.072 36.9249 24.384 35.0369 24.384C34.1889 24.384 33.4209 24.304 32.7329 24.144C32.0609 23.984 31.4769 23.744 30.9809 23.424C30.5009 23.104 30.1249 22.696 29.8529 22.2C29.5969 21.704 29.4689 21.128 29.4689 20.472C29.4689 19.368 29.7969 18.52 30.4529 17.928C31.1089 17.336 32.1249 16.968 33.5009 16.824L36.6449 16.488V16.32C36.6449 15.856 36.4369 15.528 36.0209 15.336C35.6209 15.128 35.0369 15.024 34.2689 15.024C33.6609 15.024 33.0689 15.088 32.4929 15.216C31.9169 15.344 31.3969 15.504 30.9329 15.696C30.7249 15.552 30.5489 15.336 30.4049 15.048C30.2609 14.744 30.1889 14.432 30.1889 14.112C30.1889 13.696 30.2849 13.368 30.4769 13.128C30.6849 12.872 30.9969 12.656 31.4129 12.48C31.8769 12.304 32.4209 12.176 33.0449 12.096C33.6849 12.016 34.2849 11.976 34.8449 11.976ZM42.3456 18.168C42.3456 17.112 42.5056 16.2 42.8256 15.432C43.1456 14.648 43.5856 14 44.1456 13.488C44.7216 12.976 45.3856 12.6 46.1376 12.36C46.9056 12.104 47.7296 11.976 48.6096 11.976C48.9296 11.976 49.2416 12.008 49.5456 12.072C49.8496 12.12 50.0976 12.184 50.2896 12.264V8.376C50.4496 8.328 50.7056 8.28 51.0576 8.232C51.4096 8.168 51.7696 8.136 52.1376 8.136C52.4896 8.136 52.8016 8.16 53.0736 8.208C53.3616 8.256 53.6016 8.352 53.7936 8.496C53.9856 8.64 54.1296 8.84 54.2256 9.096C54.3216 9.336 54.3696 9.656 54.3696 10.056V21.432C54.3696 22.184 54.0176 22.784 53.3136 23.232C52.8496 23.536 52.2496 23.8 51.5136 24.024C50.7776 24.264 49.9296 24.384 48.9696 24.384C47.9296 24.384 46.9936 24.24 46.1616 23.952C45.3456 23.664 44.6496 23.248 44.0736 22.704C43.5136 22.16 43.0816 21.512 42.7776 20.76C42.4896 19.992 42.3456 19.128 42.3456 18.168ZM49.1616 15.168C48.2976 15.168 47.6336 15.416 47.1696 15.912C46.7056 16.408 46.4736 17.16 46.4736 18.168C46.4736 19.16 46.6896 19.912 47.1216 20.424C47.5536 20.92 48.1776 21.168 48.9936 21.168C49.2816 21.168 49.5376 21.128 49.7616 21.048C50.0016 20.952 50.1856 20.848 50.3136 20.736V15.456C49.9936 15.264 49.6096 15.168 49.1616 15.168ZM55.9421 22.056C55.9421 21.384 56.1501 20.824 56.5661 20.376C56.9821 19.928 57.5501 19.704 58.2701 19.704C58.9901 19.704 59.5581 19.928 59.9741 20.376C60.3901 20.824 60.5981 21.384 60.5981 22.056C60.5981 22.728 60.3901 23.288 59.9741 23.736C59.5581 24.184 58.9901 24.408 58.2701 24.408C57.5501 24.408 56.9821 24.184 56.5661 23.736C56.1501 23.288 55.9421 22.728 55.9421 22.056Z" fill="white"/>
</g>
<defs>
<clipPath id="clip0_1_770">
<rect width="90" height="36" fill="white"/>
</clipPath>
</defs>
</svg>
